<svg width="512" height="512" viewBox="0 0 512 512" fill="none" xmlns="http://www.w3.org/2000/svg">
<rect width="512" height="512" fill="#FFE6C0"/>
<g clip-path="url(#clip0_2128_199)">
<path d="M368.5 343.5V168.5C368.5 154.75 357.25 143.5 343.5 143.5H168.5C154.75 143.5 143.5 154.75 143.5 168.5V343.5C143.5 357.25 154.75 368.5 168.5 368.5H343.5C357.25 368.5 368.5 357.25 368.5 343.5ZM217.25 280.75L243.5 312.375L282.25 262.5C284.75 259.25 289.75 259.25 292.25 262.625L336.125 321.125C339.25 325.25 336.25 331.125 331.125 331.125H181.25C176 331.125 173.125 325.125 176.375 321L207.5 281C209.875 277.75 214.625 277.625 217.25 280.75Z" fill="#996518"/>
</g>
<defs>
<clipPath id="clip0_2128_199">
<rect width="300" height="300" fill="white" transform="translate(106 106)"/>
</clipPath>
</defs>
</svg>
