<svg width="512" height="512" viewBox="0 0 512 512" fill="none" xmlns="http://www.w3.org/2000/svg">
<rect width="512" height="512" fill="#C6DDFF"/>
<g clip-path="url(#clip0_2065_174)">
<path d="M356 131H156C142.25 131 131.125 142.25 131.125 156L131 381L181 331H356C369.75 331 381 319.75 381 306V156C381 142.25 369.75 131 356 131ZM193.5 218.5H318.5C325.375 218.5 331 224.125 331 231C331 237.875 325.375 243.5 318.5 243.5H193.5C186.625 243.5 181 237.875 181 231C181 224.125 186.625 218.5 193.5 218.5ZM268.5 281H193.5C186.625 281 181 275.375 181 268.5C181 261.625 186.625 256 193.5 256H268.5C275.375 256 281 261.625 281 268.5C281 275.375 275.375 281 268.5 281ZM318.5 206H193.5C186.625 206 181 200.375 181 193.5C181 186.625 186.625 181 193.5 181H318.5C325.375 181 331 186.625 331 193.5C331 200.375 325.375 206 318.5 206Z" fill="#184C99"/>
</g>
<defs>
<clipPath id="clip0_2065_174">
<rect width="300" height="300" fill="white" transform="translate(106 106)"/>
</clipPath>
</defs>
</svg>
